<svg width="450" height="340" viewBox="0 0 450 340" fill="none" xmlns="http://www.w3.org/2000/svg">
<rect width="450" height="340" fill="#C4C4C4"/>
<path d="M304.333 240.188V247.156C304.333 258.703 295.006 268.062 283.5 268.062H116.833C105.327 268.062 96 258.703 96 247.156V135.656C96 124.11 105.327 114.75 116.833 114.75H123.778V205.344C123.778 224.557 139.354 240.188 158.5 240.188H304.333ZM346 205.344V93.8438C346 82.2974 336.673 72.9375 325.167 72.9375H158.5C146.994 72.9375 137.667 82.2974 137.667 93.8438V205.344C137.667 216.89 146.994 226.25 158.5 226.25H325.167C336.673 226.25 346 216.89 346 205.344ZM207.111 114.75C207.111 126.296 197.784 135.656 186.278 135.656C174.772 135.656 165.444 126.296 165.444 114.75C165.444 103.204 174.772 93.8438 186.278 93.8438C197.784 93.8438 207.111 103.204 207.111 114.75ZM165.444 177.469L189.539 153.289C191.573 151.248 194.871 151.248 196.905 153.289L214.056 170.5L272.873 111.477C274.907 109.436 278.204 109.436 280.239 111.477L318.222 149.594V198.375H165.444V177.469Z" fill="#969696"/>
</svg>
