<svg width="138" height="40" viewBox="0 0 138 40" fill="none" xmlns="http://www.w3.org/2000/svg">
<path fill-rule="evenodd" clip-rule="evenodd" d="M9.96008 14.6491C10.5722 11.3105 10.8782 9.64116 12.0629 8.65395C13.2475 7.66675 14.9447 7.66675 18.339 7.66675H26.5735C26.9847 7.66675 27.3781 7.66675 27.7544 7.66775C28.1294 7.66875 28.3169 7.66925 28.4187 7.79178C28.5206 7.9143 28.4867 8.09933 28.4188 8.46938L27.0823 15.7593H34.4961C34.8723 15.7593 35.0604 15.7593 35.1626 15.8816C35.2647 16.0038 35.2314 16.1884 35.1648 16.5574C35.0978 16.9284 35.0267 17.3161 34.9524 17.7214L33.4688 25.8139C32.8567 29.1526 32.5506 30.8219 31.366 31.8091C30.1813 32.7963 28.4842 32.7963 25.0899 32.7963H16.8553C12.118 32.7963 9.74927 32.7963 8.47215 31.2638C7.19503 29.7312 7.62217 27.4014 8.47645 22.7417L9.96008 14.6491ZM27.0823 15.7593L25.9056 22.19C25.6853 23.3919 25.5751 23.9929 25.1486 24.3483C24.7221 24.7037 24.1112 24.7037 22.8892 24.7037L20.0243 24.7037C18.3189 24.7036 17.4661 24.7036 17.0064 24.1519C16.5466 23.6002 16.7004 22.7615 17.0079 21.084L17.5232 18.2731C17.7436 17.0712 17.8538 16.4702 18.2802 16.1148C18.7067 15.7594 19.3177 15.7594 20.5396 15.7594L27.0823 15.7593Z" fill="#1D1D1F"/>
<path fill-rule="evenodd" clip-rule="evenodd" d="M9.96008 14.6491C10.5722 11.3105 10.8782 9.64116 12.0629 8.65395C13.2475 7.66675 14.9447 7.66675 18.339 7.66675H26.5735C26.9847 7.66675 27.3781 7.66675 27.7544 7.66775C28.1294 7.66875 28.3169 7.66925 28.4187 7.79178C28.5206 7.9143 28.4867 8.09933 28.4188 8.46938L27.0823 15.7593H34.4961C34.8723 15.7593 35.0604 15.7593 35.1626 15.8816C35.2647 16.0038 35.2314 16.1884 35.1648 16.5574C35.0978 16.9284 35.0267 17.3161 34.9524 17.7214L33.4688 25.8139C32.8567 29.1526 32.5506 30.8219 31.366 31.8091C30.1813 32.7963 28.4842 32.7963 25.0899 32.7963H16.8553C12.118 32.7963 9.74927 32.7963 8.47215 31.2638C7.19503 29.7312 7.62217 27.4014 8.47645 22.7417L9.96008 14.6491ZM27.0823 15.7593L25.9056 22.19C25.6853 23.3919 25.5751 23.9929 25.1486 24.3483C24.7221 24.7037 24.1112 24.7037 22.8892 24.7037L20.0243 24.7037C18.3189 24.7036 17.4661 24.7036 17.0064 24.1519C16.5466 23.6002 16.7004 22.7615 17.0079 21.084L17.5232 18.2731C17.7436 17.0712 17.8538 16.4702 18.2802 16.1148C18.7067 15.7594 19.3177 15.7594 20.5396 15.7594L27.0823 15.7593Z" fill="#1D1D1F"/>
<path d="M46.9629 9.61426H40.65L36.9688 31.7316H43.3114L44.7089 23.2589H52.0512L50.6537 31.7316H56.9665L60.6478 9.61426H54.3343L52.9367 18.087H45.5653L46.9629 9.61426Z" fill="#1D1D1F"/>
<path d="M46.9629 9.61426H40.65L36.9688 31.7316H43.3114L44.7089 23.2589H52.0512L50.6537 31.7316H56.9665L60.6478 9.61426H54.3343L52.9367 18.087H45.5653L46.9629 9.61426Z" fill="#1D1D1F"/>
<path d="M67.297 27.8063L67.383 28.0011L67.3822 28.0015L67.3814 28.0018L67.297 27.8063Z" fill="#1D1D1F"/>
<path d="M67.297 27.8063L67.383 28.0011L67.3822 28.0015L67.3814 28.0018L67.297 27.8063Z" fill="#1D1D1F"/>
<path fill-rule="evenodd" clip-rule="evenodd" d="M69.073 14.826C67.4308 14.826 66.0032 15.0816 64.7962 15.6003C63.6064 16.1159 62.641 16.804 61.9083 17.6672L61.9073 17.6683C61.1884 18.527 60.7111 19.4697 60.4799 20.4951L60.4213 20.7549H66.2023L66.2485 20.6045C66.3905 20.1429 66.6372 19.8214 66.9824 19.6193L66.9856 19.6173C67.3453 19.398 67.7765 19.2797 68.2868 19.27C68.772 19.2797 69.1169 19.3897 69.3483 19.5733L69.3511 19.5754C69.5712 19.7442 69.6687 19.9829 69.6191 20.3378L69.6171 20.3524V20.4047C69.5676 20.643 69.4321 20.8359 69.192 20.988L69.1893 20.9898C68.9428 21.1512 68.5487 21.2903 67.9872 21.395C67.4339 21.4904 66.7044 21.5721 65.7962 21.6398L65.7951 21.6398C64.9284 21.7088 64.1091 21.8518 63.3376 22.0694C62.5607 22.2885 61.8558 22.608 61.2246 23.0288C60.5889 23.4527 60.054 23.9931 59.6215 24.6469C59.1944 25.2978 58.909 26.0844 58.7596 27.0004C58.5806 28.0945 58.6559 29.0293 59.0096 29.7888L59.0112 29.792C59.3734 30.5372 59.9494 31.0908 60.7296 31.4501L60.7305 31.4505C61.5108 31.8052 62.4296 31.9838 63.4807 31.9937L63.4857 31.9937C64.2099 31.9837 64.8876 31.8944 65.5181 31.7243L65.5203 31.7237C66.1645 31.5425 66.7591 31.2604 67.303 30.8776L67.3052 30.8761C67.7007 30.5904 68.0676 30.2426 68.4065 29.834L68.0943 31.7316H73.9702L75.8628 20.4053L75.8631 20.4038C76.0046 19.6239 75.95 18.8914 75.6929 18.2117C75.4462 17.524 75.0205 16.9265 74.4225 16.4197C73.8238 15.9123 73.0739 15.5217 72.1789 15.2433C71.2804 14.9637 70.2441 14.826 69.073 14.826ZM68.548 27.1617C68.8867 26.7806 69.1018 26.3214 69.1955 25.7907L69.4547 24.0874L69.1147 24.2149C68.9649 24.2711 68.8002 24.3276 68.6208 24.3844C68.4404 24.4318 68.2455 24.4793 68.0359 24.5269L68.0338 24.5274C67.8345 24.5748 67.6253 24.6177 67.4061 24.6558L67.4045 24.6561C67.1909 24.6949 66.968 24.7385 66.7357 24.7868C66.2565 24.8573 65.842 24.9787 65.4972 25.1561C65.164 25.3229 64.8944 25.5359 64.6967 25.7988C64.5009 26.0495 64.3754 26.334 64.321 26.6492L64.3204 26.6533C64.2446 27.1515 64.3562 27.5755 64.6948 27.8778L64.6976 27.8803C65.0297 28.1665 65.4785 28.2959 66.0159 28.2959C66.4833 28.2959 66.9393 28.1971 67.3822 28.0015C67.8367 27.8051 68.2261 27.525 68.548 27.1617Z" fill="#1D1D1F"/>
<path fill-rule="evenodd" clip-rule="evenodd" d="M69.073 14.826C67.4308 14.826 66.0032 15.0816 64.7962 15.6003C63.6064 16.1159 62.641 16.804 61.9083 17.6672L61.9073 17.6683C61.1884 18.527 60.7111 19.4697 60.4799 20.4951L60.4213 20.7549H66.2023L66.2485 20.6045C66.3905 20.1429 66.6372 19.8214 66.9824 19.6193L66.9856 19.6173C67.3453 19.398 67.7765 19.2797 68.2868 19.27C68.772 19.2797 69.1169 19.3897 69.3483 19.5733L69.3511 19.5754C69.5712 19.7442 69.6687 19.9829 69.6191 20.3378L69.6171 20.3524V20.4047C69.5676 20.643 69.4321 20.8359 69.192 20.988L69.1893 20.9898C68.9428 21.1512 68.5487 21.2903 67.9872 21.395C67.4339 21.4904 66.7044 21.5721 65.7962 21.6398L65.7951 21.6398C64.9284 21.7088 64.1091 21.8518 63.3376 22.0694C62.5607 22.2885 61.8558 22.608 61.2246 23.0288C60.5889 23.4527 60.054 23.9931 59.6215 24.6469C59.1944 25.2978 58.909 26.0844 58.7596 27.0004C58.5806 28.0945 58.6559 29.0293 59.0096 29.7888L59.0112 29.792C59.3734 30.5372 59.9494 31.0908 60.7296 31.4501L60.7305 31.4505C61.5108 31.8052 62.4296 31.9838 63.4807 31.9937L63.4857 31.9937C64.2099 31.9837 64.8876 31.8944 65.5181 31.7243L65.5203 31.7237C66.1645 31.5425 66.7591 31.2604 67.303 30.8776L67.3052 30.8761C67.7007 30.5904 68.0676 30.2426 68.4065 29.834L68.0943 31.7316H73.9702L75.8628 20.4053L75.8631 20.4038C76.0046 19.6239 75.95 18.8914 75.6929 18.2117C75.4462 17.524 75.0205 16.9265 74.4225 16.4197C73.8238 15.9123 73.0739 15.5217 72.1789 15.2433C71.2804 14.9637 70.2441 14.826 69.073 14.826ZM68.548 27.1617C68.8867 26.7806 69.1018 26.3214 69.1955 25.7907L69.4547 24.0874L69.1147 24.2149C68.9649 24.2711 68.8002 24.3276 68.6208 24.3844C68.4404 24.4318 68.2455 24.4793 68.0359 24.5269L68.0338 24.5274C67.8345 24.5748 67.6253 24.6177 67.4061 24.6558L67.4045 24.6561C67.1909 24.6949 66.968 24.7385 66.7357 24.7868C66.2565 24.8573 65.842 24.9787 65.4972 25.1561C65.164 25.3229 64.8944 25.5359 64.6967 25.7988C64.5009 26.0495 64.3754 26.334 64.321 26.6492L64.3204 26.6533C64.2446 27.1515 64.3562 27.5755 64.6948 27.8778L64.6976 27.8803C65.0297 28.1665 65.4785 28.2959 66.0159 28.2959C66.4833 28.2959 66.9393 28.1971 67.3822 28.0015C67.8367 27.8051 68.2261 27.525 68.548 27.1617Z" fill="#1D1D1F"/>
<path d="M86.6591 14.826C84.8639 14.826 83.2576 15.1862 81.8455 15.9121C80.4364 16.6266 79.2789 17.6303 78.3756 18.9206C77.482 20.2015 76.9034 21.6928 76.6368 23.3901C76.3511 25.0858 76.4376 26.59 76.909 27.8938C77.3815 29.1907 78.2082 30.2088 79.3838 30.9423L79.3856 30.9434C80.5733 31.6681 82.0706 32.0228 83.864 32.0228C85.5005 32.0228 86.9637 31.7316 88.2478 31.1443C89.5395 30.5481 90.6011 29.7066 91.4287 28.6198C92.2658 27.5236 92.8218 26.2403 93.0992 24.7742L93.147 24.5217H87.3095L87.2682 24.6813C87.1276 25.2247 86.9281 25.6812 86.6731 26.0549C86.4183 26.4186 86.1223 26.6904 85.7864 26.8765C85.4502 27.053 85.0823 27.1421 84.6792 27.1421C84.2172 27.1421 83.8519 27.0146 83.5668 26.7721C83.2839 26.5217 83.0775 26.1298 82.9668 25.5686C82.8663 25.0094 82.8827 24.2988 83.0259 23.4299L83.0263 23.4273C83.1598 22.55 83.3728 21.8314 83.6601 21.2656C83.9584 20.6974 84.3102 20.2868 84.71 20.0203C85.1125 19.752 85.5471 19.6194 86.0186 19.6194C86.6016 19.6194 87.0178 19.8229 87.3018 20.2155L87.3049 20.2196C87.6 20.6074 87.7355 21.1918 87.6697 22.0098L87.6512 22.2398H93.479L93.5078 22.0606C93.8552 19.8967 93.4261 18.1316 92.1869 16.801C90.9491 15.4718 89.0923 14.826 86.6591 14.826Z" fill="#1D1D1F"/>
<path d="M86.6591 14.826C84.8639 14.826 83.2576 15.1862 81.8455 15.9121C80.4364 16.6266 79.2789 17.6303 78.3756 18.9206C77.482 20.2015 76.9034 21.6928 76.6368 23.3901C76.3511 25.0858 76.4376 26.59 76.909 27.8938C77.3815 29.1907 78.2082 30.2088 79.3838 30.9423L79.3856 30.9434C80.5733 31.6681 82.0706 32.0228 83.864 32.0228C85.5005 32.0228 86.9637 31.7316 88.2478 31.1443C89.5395 30.5481 90.6011 29.7066 91.4287 28.6198C92.2658 27.5236 92.8218 26.2403 93.0992 24.7742L93.147 24.5217H87.3095L87.2682 24.6813C87.1276 25.2247 86.9281 25.6812 86.6731 26.0549C86.4183 26.4186 86.1223 26.6904 85.7864 26.8765C85.4502 27.053 85.0823 27.1421 84.6792 27.1421C84.2172 27.1421 83.8519 27.0146 83.5668 26.7721C83.2839 26.5217 83.0775 26.1298 82.9668 25.5686C82.8663 25.0094 82.8827 24.2988 83.0259 23.4299L83.0263 23.4273C83.1598 22.55 83.3728 21.8314 83.6601 21.2656C83.9584 20.6974 84.3102 20.2868 84.71 20.0203C85.1125 19.752 85.5471 19.6194 86.0186 19.6194C86.6016 19.6194 87.0178 19.8229 87.3018 20.2155L87.3049 20.2196C87.6 20.6074 87.7355 21.1918 87.6697 22.0098L87.6512 22.2398H93.479L93.5078 22.0606C93.8552 19.8967 93.4261 18.1316 92.1869 16.801C90.9491 15.4718 89.0923 14.826 86.6591 14.826Z" fill="#1D1D1F"/>
<path fill-rule="evenodd" clip-rule="evenodd" d="M104.041 14.826C102.246 14.826 100.64 15.1862 99.2277 15.9121C97.8185 16.6267 96.6657 17.6304 95.772 18.9212C94.8788 20.2017 94.2956 21.6925 94.0192 23.3892C93.7333 25.0853 93.8197 26.5898 94.2912 27.8938C94.7637 29.1907 95.5904 30.2088 96.7661 30.9423L96.7679 30.9434C97.9555 31.6681 99.4528 32.0228 101.246 32.0228C103.041 32.0228 104.643 31.6673 106.046 30.951C107.454 30.227 108.607 29.2238 109.5 27.9431C110.404 26.6529 110.992 25.157 111.268 23.4596C111.554 21.7636 111.463 20.264 110.982 18.9691C110.509 17.6626 109.677 16.6443 108.491 15.9205C107.313 15.1856 105.825 14.826 104.041 14.826ZM103.357 27.0057C102.94 27.3357 102.479 27.5007 101.974 27.5007C101.46 27.5007 101.042 27.3357 100.722 27.0057C100.412 26.6757 100.208 26.205 100.111 25.5936C100.023 24.9724 100.052 24.2397 100.198 23.3953C100.334 22.5412 100.547 21.8085 100.839 21.197C101.139 20.5759 101.499 20.1003 101.916 19.7703C102.343 19.4404 102.809 19.2802 103.313 19.2899C103.828 19.2802 104.24 19.4404 104.551 19.7703C104.861 20.1003 105.065 20.5759 105.162 21.197C105.259 21.8085 105.235 22.5412 105.09 23.3953C104.954 24.2397 104.735 24.9724 104.434 25.5936C104.134 26.205 103.774 26.6757 103.357 27.0057Z" fill="#1D1D1F"/>
<path fill-rule="evenodd" clip-rule="evenodd" d="M104.041 14.826C102.246 14.826 100.64 15.1862 99.2277 15.9121C97.8185 16.6267 96.6657 17.6304 95.772 18.9212C94.8788 20.2017 94.2956 21.6925 94.0192 23.3892C93.7333 25.0853 93.8197 26.5898 94.2912 27.8938C94.7637 29.1907 95.5904 30.2088 96.7661 30.9423L96.7679 30.9434C97.9555 31.6681 99.4528 32.0228 101.246 32.0228C103.041 32.0228 104.643 31.6673 106.046 30.951C107.454 30.227 108.607 29.2238 109.5 27.9431C110.404 26.6529 110.992 25.157 111.268 23.4596C111.554 21.7636 111.463 20.264 110.982 18.9691C110.509 17.6626 109.677 16.6443 108.491 15.9205C107.313 15.1856 105.825 14.826 104.041 14.826ZM103.357 27.0057C102.94 27.3357 102.479 27.5007 101.974 27.5007C101.46 27.5007 101.042 27.3357 100.722 27.0057C100.412 26.6757 100.208 26.205 100.111 25.5936C100.023 24.9724 100.052 24.2397 100.198 23.3953C100.334 22.5412 100.547 21.8085 100.839 21.197C101.139 20.5759 101.499 20.1003 101.916 19.7703C102.343 19.4404 102.809 19.2802 103.313 19.2899C103.828 19.2802 104.24 19.4404 104.551 19.7703C104.861 20.1003 105.065 20.5759 105.162 21.197C105.259 21.8085 105.235 22.5412 105.09 23.3953C104.954 24.2397 104.735 24.9724 104.434 25.5936C104.134 26.205 103.774 26.6757 103.357 27.0057Z" fill="#1D1D1F"/>
<path d="M121.528 15.7469C122.497 15.1317 123.6 14.826 124.83 14.826C126.017 14.826 127.018 15.0955 127.819 15.6497C128.625 16.2009 129.191 16.9623 129.516 17.9252C129.85 18.8789 129.907 19.9693 129.699 21.1892L127.951 31.7316H121.667L123.223 22.3414C123.353 21.5667 123.253 21.001 122.969 20.6085L122.966 20.6044C122.698 20.2142 122.242 19.9979 121.54 19.9979C121.098 19.9979 120.702 20.0968 120.347 20.2918L120.343 20.2937C119.989 20.4801 119.689 20.7513 119.446 21.1124L119.444 21.1144C119.203 21.4622 119.038 21.8919 118.955 22.41L118.955 22.411L117.412 31.7316H111.127L113.906 15.0298H120.13L119.742 17.4724C120.218 16.7695 120.814 16.1936 121.528 15.7469Z" fill="#1D1D1F"/>
<path d="M121.528 15.7469C122.497 15.1317 123.6 14.826 124.83 14.826C126.017 14.826 127.018 15.0955 127.819 15.6497C128.625 16.2009 129.191 16.9623 129.516 17.9252C129.85 18.8789 129.907 19.9693 129.699 21.1892L127.951 31.7316H121.667L123.223 22.3414C123.353 21.5667 123.253 21.001 122.969 20.6085L122.966 20.6044C122.698 20.2142 122.242 19.9979 121.54 19.9979C121.098 19.9979 120.702 20.0968 120.347 20.2918L120.343 20.2937C119.989 20.4801 119.689 20.7513 119.446 21.1124L119.444 21.1144C119.203 21.4622 119.038 21.8919 118.955 22.41L118.955 22.411L117.412 31.7316H111.127L113.906 15.0298H120.13L119.742 17.4724C120.218 16.7695 120.814 16.1936 121.528 15.7469Z" fill="#1D1D1F"/>
<path d="M128.959 9.50514L129.075 8.82715H131.767L131.65 9.50514H130.718L130.319 11.9259H129.491L129.891 9.50514H128.959Z" fill="#1D1D1F"/>
<path d="M128.959 9.50514L129.075 8.82715H131.767L131.65 9.50514H130.718L130.319 11.9259H129.491L129.891 9.50514H128.959Z" fill="#1D1D1F"/>
<path d="M131.983 8.82715H133.031L133.459 10.5824H133.497L134.508 8.82715H135.552L135.04 11.9259H134.217L134.512 10.1332H134.487L133.509 11.901H133.01L132.619 10.1249H132.594L132.291 11.9259H131.467L131.983 8.82715Z" fill="#1D1D1F"/>
<path d="M131.983 8.82715H133.031L133.459 10.5824H133.497L134.508 8.82715H135.552L135.04 11.9259H134.217L134.512 10.1332H134.487L133.509 11.901H133.01L132.619 10.1249H132.594L132.291 11.9259H131.467L131.983 8.82715Z" fill="#1D1D1F"/>
</svg>
