<svg width="18" height="18" viewBox="0 0 18 18" fill="none" xmlns="http://www.w3.org/2000/svg">
<path d="M5.45375 14.5387L5.70488 14.6875C6.76011 15.3138 7.96992 15.645 9.20364 15.6456H9.20633C12.9952 15.6456 16.0789 12.5626 16.0804 8.7735C16.081 6.93712 15.3667 5.2106 14.0688 3.91156C12.7709 2.61276 11.0452 1.89698 9.20879 1.89622C5.41703 1.89622 2.33332 4.97874 2.33189 8.76787C2.33139 10.0663 2.69462 11.3309 3.38283 12.4249L3.54641 12.685L2.85181 15.2208L5.45375 14.5387ZM0.866211 17.1852L2.03952 12.9009C1.31581 11.647 0.935085 10.2246 0.935681 8.76748C0.937445 4.20879 4.64734 0.5 9.2065 0.5C11.4188 0.500954 13.4953 1.36196 15.0568 2.92477C16.6182 4.48755 17.4778 6.5649 17.4771 8.77416C17.4752 13.3326 13.7645 17.0421 9.2065 17.0421C9.20617 17.0421 9.20667 17.0421 9.2065 17.0421H9.20297C7.81882 17.0416 6.45874 16.6944 5.25077 16.0356L0.866211 17.1852Z" fill="white"/>
<path d="M1.22124 8.77179C1.22074 10.1783 1.58826 11.5515 2.28708 12.7621L1.1543 16.8981L5.38686 15.7883C6.55301 16.4238 7.86598 16.7593 9.20221 16.7597H9.20566C13.6061 16.7597 17.1878 13.1789 17.1897 8.77805C17.1905 6.6453 16.3608 4.64014 14.8532 3.13131C13.346 1.62268 11.3414 0.791407 9.20531 0.790405C4.80467 0.790405 1.22315 4.37068 1.22124 8.77179ZM9.20566 16.7597C9.20549 16.7597 9.20558 16.7597 9.20566 16.7597V16.7597Z" fill="url(#paint0_linear_869_4185)"/>
<path d="M0.935681 8.76921C0.93518 10.2263 1.31591 11.6488 2.03962 12.9026L0.866211 17.1866L5.25063 16.0371C6.45868 16.6958 7.81868 17.043 9.20283 17.0436H9.20636C13.7643 17.0436 17.475 13.3341 17.4769 8.77562C17.4777 6.56625 16.6181 4.48895 15.0567 2.92624C13.4951 1.36352 11.4187 0.502418 9.20636 0.501465C4.64744 0.501465 0.937449 4.21026 0.935542 8.76895M3.5465 12.6866L3.38284 12.4266C2.69462 11.3325 2.3314 10.0679 2.3319 8.76957C2.3334 4.98067 5.41704 1.89792 9.20879 1.89792C11.045 1.89863 12.7707 2.61448 14.0688 3.91326C15.3668 5.21214 16.081 6.9388 16.0805 8.77496C16.0788 12.5641 12.9951 15.6471 9.20619 15.6471H9.2035C7.96981 15.6464 6.7599 15.3152 5.70474 14.6891L5.45361 14.5402L2.85171 15.2224L3.5465 12.6866ZM9.20636 17.0436C9.2062 17.0436 9.20628 17.0436 9.20636 17.0436V17.0436Z" fill="#F5F5F7"/>
<path fill-rule="evenodd" clip-rule="evenodd" d="M7.13933 5.31246C6.9845 4.9683 6.82159 4.96141 6.67433 4.95536C6.55381 4.95023 6.41597 4.95057 6.2783 4.95057C6.14046 4.95057 5.91657 5.00229 5.72726 5.20909C5.53778 5.41589 5.00391 5.9158 5.00391 6.93251C5.00391 7.94931 5.74452 8.93178 5.8477 9.06979C5.95106 9.20755 7.27736 11.3607 9.37769 12.189C11.1234 12.8774 11.4786 12.7405 11.8575 12.706C12.2364 12.6716 13.0802 12.2063 13.2524 11.7237C13.4246 11.2412 13.4246 10.8276 13.373 10.7412C13.3213 10.6551 13.1835 10.6034 12.9768 10.5001C12.7701 10.3967 11.7542 9.89675 11.5648 9.82778C11.3753 9.7589 11.2375 9.7245 11.0997 9.9314C10.9619 10.138 10.5661 10.6034 10.4455 10.7412C10.325 10.8793 10.2044 10.8966 9.99777 10.7932C9.79104 10.6895 9.12546 10.4715 8.3359 9.76757C7.72155 9.21982 7.30682 8.54338 7.18622 8.33648C7.0657 8.12984 7.17335 8.0179 7.27696 7.91487C7.36981 7.82227 7.48369 7.67358 7.58705 7.55297C7.69016 7.43229 7.72456 7.34617 7.79344 7.20832C7.8624 7.07039 7.82792 6.9497 7.77628 6.84633C7.72456 6.74297 7.32309 5.7211 7.13933 5.31246Z" fill="white"/>
<defs>
<linearGradient id="paint0_linear_869_4185" x1="9.17208" y1="16.8965" x2="9.17208" y2="0.788713" gradientUnits="userSpaceOnUse">
<stop stop-color="#20B038"/>
<stop offset="1" stop-color="#60D66A"/>
</linearGradient>
</defs>
</svg>
