<svg width="16" height="16" viewBox="0 0 16 16" fill="none" xmlns="http://www.w3.org/2000/svg">
<g clip-path="url(#clip0_869_4277)">
<path d="M13.4671 1.56477C13.0682 1.20786 11.4726 0.0321611 7.8825 0.0111664C7.8825 0.0111664 3.66258 -0.240772 1.6051 1.64875C0.450394 2.80345 0.051494 4.46203 0.0095047 6.5405C-0.0324846 8.61898 -0.0954632 12.503 3.66258 13.5737V15.1903C3.66258 15.1903 3.64158 15.8411 4.06148 15.9671C4.58634 16.1351 4.88027 15.6312 5.38414 15.1063C5.65707 14.8124 6.03497 14.3925 6.3079 14.0566C8.86925 14.2665 10.8427 13.7837 11.0737 13.6997C11.5986 13.5317 14.5168 13.1538 14.9997 9.26981C15.5036 5.23884 14.7897 2.69848 13.4671 1.56477ZM13.908 8.95489C13.5091 12.2091 11.1367 12.419 10.6958 12.545C10.5068 12.608 8.78528 13.0279 6.60183 12.9019C6.60183 12.9019 4.98524 14.8544 4.46037 15.3792C4.3764 15.4632 4.29242 15.4842 4.22943 15.4842C4.14545 15.4632 4.12446 15.3583 4.12446 15.2113C4.12446 15.0013 4.14545 12.524 4.14545 12.524C0.975262 11.6422 1.16421 8.32505 1.18521 6.58249C1.2272 4.83993 1.54212 3.43329 2.50787 2.46754C4.25043 0.892938 7.84052 1.12388 7.84052 1.12388C10.8637 1.14488 12.3124 2.04764 12.6483 2.36256C13.74 3.32832 14.3069 5.61674 13.908 8.95489Z" fill="#7360F2"/>
<path d="M9.3525 6.45663C9.31051 5.6588 8.9116 5.23889 8.13477 5.1969" stroke="#7360F2" stroke-width="0.404567" stroke-linecap="round" stroke-linejoin="round"/>
<path d="M10.4018 6.79252C10.4228 6.05768 10.1918 5.42782 9.75092 4.94492C9.28902 4.44103 8.65916 4.16809 7.86133 4.1051" stroke="#7360F2" stroke-width="0.404567" stroke-linecap="round" stroke-linejoin="round"/>
<path d="M11.452 7.21252C11.452 5.9318 11.0531 4.92401 10.2973 4.18917C9.54144 3.45433 8.59665 3.07642 7.46289 3.07642" stroke="#7360F2" stroke-width="0.404567" stroke-linecap="round" stroke-linejoin="round"/>
<path d="M8.17594 9.16481C8.17594 9.16481 8.46986 9.1858 8.61683 8.99685L8.91076 8.61894C9.05772 8.42999 9.39363 8.30402 9.75054 8.49297C9.9395 8.59795 10.2754 8.80789 10.4854 8.97585C10.7163 9.14381 11.1782 9.52171 11.1782 9.52171C11.4091 9.71066 11.4511 9.9836 11.3041 10.2775C11.1572 10.5505 10.9472 10.8024 10.6743 11.0333C10.4644 11.2223 10.2544 11.3063 10.0445 11.3482H9.96049C9.87651 11.3482 9.77153 11.3273 9.68756 11.3063C9.37264 11.2223 8.84777 10.9913 7.945 10.5085C7.37815 10.1935 6.89527 9.85763 6.49637 9.54271C6.28643 9.37475 6.05548 9.1858 5.84554 8.95486L5.76156 8.87088C5.53062 8.63993 5.34166 8.42999 5.17371 8.22005C4.85879 7.82115 4.52287 7.33827 4.20795 6.77141C3.72507 5.88964 3.49413 5.36477 3.41016 5.02886C3.38916 4.94488 3.36816 4.8609 3.36816 4.75593V4.67195C3.38916 4.462 3.49413 4.25205 3.68308 4.04211C3.91403 3.79017 4.16596 3.58022 4.43889 3.41227C4.73282 3.2653 5.00575 3.30729 5.1947 3.53824C5.1947 3.53824 5.57261 4.00012 5.74056 4.23106C5.88753 4.44101 6.09747 4.77692 6.22344 4.96588C6.41239 5.30179 6.28642 5.6587 6.11846 5.80566L5.74056 6.09959C5.55161 6.24655 5.5726 6.54047 5.5726 6.54047C5.5726 6.54047 6.09747 8.61895 8.17594 9.16481Z" fill="#7360F2"/>
</g>
<defs>
<clipPath id="clip0_869_4277">
<rect width="16" height="16" fill="white"/>
</clipPath>
</defs>
</svg>
