<svg xmlns="http://www.w3.org/2000/svg">
    <symbol id="3-dots" fill="none" viewBox="0 0 54 24">
        <rect width="54" height="24" rx="12" fill="#EBEBEC" />
        <path
            d="M16.666 15.773c-.841 0-1.563-.301-2.165-.904-.602-.602-.904-1.323-.904-2.165 0-.84.302-1.562.904-2.164.602-.602 1.324-.904 2.165-.904.84 0 1.562.302 2.164.904.603.602.904 1.324.904 2.165 0 .556-.142 1.068-.426 1.534-.273.465-.642.84-1.108 1.125-.455.272-.966.409-1.534.409Zm10.338 0c-.84 0-1.562-.301-2.165-.904-.602-.602-.903-1.323-.903-2.165 0-.84.301-1.562.904-2.164.602-.602 1.323-.904 2.164-.904.841 0 1.563.302 2.165.904.602.602.903 1.324.903 2.165a2.89 2.89 0 0 1-.426 1.534c-.272.465-.642.84-1.108 1.125-.454.272-.966.409-1.534.409Zm10.339 0c-.84 0-1.563-.301-2.165-.904-.602-.602-.903-1.323-.903-2.165 0-.84.301-1.562.903-2.164.603-.602 1.324-.904 2.165-.904.84 0 1.563.302 2.165.904.602.602.903 1.324.903 2.165 0 .556-.142 1.068-.426 1.534-.273.465-.642.84-1.108 1.125-.454.272-.966.409-1.534.409Z"
            fill="currentColor" />
    </symbol>
    <symbol id="carret-up" viewBox="0 0 16 16" fill="none">
        <path d="M12 11L4 11L8 4L12 11Z" fill="currentColor" style="transition: all 0.3s ease;" />
    </symbol>
    <symbol id="carret-right" viewBox="0 0 16 16" fill="none">
        <path d="M6 4L11 8.5L6 13" stroke="#EBEBEC" stroke-width="1.5" stroke-linecap="round" stroke-linejoin="round" />
    </symbol>
    <symbol id="snapchat" viewBox="0 0 18 18" fill="var(--hover-color, transparent)" style="transition: all 0.3s ease;">
        <path
            d="M16.9532 12.9017C16.8638 12.8809 16.773 12.8659 16.6851 12.8403C15.1644 12.3978 14.224 11.337 13.6156 9.93436C13.576 9.84352 13.5276 9.75875 13.5279 9.68016C13.5284 9.50315 13.6576 9.35811 13.8507 9.24819C14.0676 9.12488 14.3371 9.05274 14.5627 8.94308C14.8556 8.80069 15.1697 8.67801 15.4199 8.47826C15.7387 8.22393 15.682 7.81458 15.3381 7.58931C15.1615 7.47371 14.9788 7.41584 14.7875 7.41584C14.6617 7.41584 14.5323 7.44086 14.3985 7.49076C14.173 7.57503 13.9116 7.63505 13.673 7.67042C13.655 7.6732 13.638 7.67447 13.622 7.67447C13.4999 7.67447 13.4393 7.59512 13.4495 7.42292C13.4898 6.74382 13.5279 6.05728 13.5279 5.38311C13.5279 4.08406 13.0252 3.00054 12.0035 2.21608C11.1073 1.52776 10.1487 1.20508 9.16146 1.20508C8.35286 1.20508 7.69373 1.3438 6.9502 1.65473C5.52746 2.24968 4.64684 3.36971 4.52783 4.95014C4.51077 5.17831 4.50395 5.40724 4.50395 5.63668C4.50395 6.219 4.54261 6.81382 4.56598 7.40093C4.57344 7.58956 4.51532 7.67762 4.37597 7.67762C4.35828 7.67762 4.3392 7.67623 4.31886 7.67346C4.06491 7.63821 3.8054 7.57175 3.56598 7.48419C3.44191 7.43896 3.32277 7.41584 3.20654 7.41584C3.05101 7.41584 2.90091 7.45728 2.75221 7.54244C2.33603 7.78047 2.28385 8.22734 2.66806 8.51541C2.90142 8.69039 3.1862 8.79993 3.45467 8.92413C3.66188 9.02015 3.89056 9.09519 4.09207 9.20056C4.3411 9.33082 4.44646 9.49747 4.43926 9.7125C4.43623 9.80145 4.41185 9.89873 4.36649 10.0051C4.26794 10.2362 4.15171 10.4626 4.01905 10.6759C3.31304 11.8103 2.39504 12.6492 1.03432 12.9039C0.845691 12.9393 0.719727 13.1535 0.719727 13.2371V13.275C0.803492 13.5725 1.01209 13.767 1.28739 13.8616C1.71177 14.0073 2.14475 14.1335 2.58152 14.2357C2.97798 14.3285 2.9824 14.3094 3.06668 14.7013C3.17849 15.2207 3.24254 15.3733 3.56598 15.3733C3.67704 15.3733 3.81804 15.3364 4.00174 15.299C4.27754 15.2428 4.49307 15.2029 4.81071 15.2116C5.55203 15.2318 6.05279 15.4099 6.59682 15.8564C6.84913 16.0634 7.13201 16.2431 7.42323 16.3913C7.95008 16.6595 8.48085 16.7948 9.01124 16.7948C9.5396 16.7948 10.0677 16.6604 10.5907 16.3895C10.9821 16.1868 11.3439 15.9221 11.7037 15.664C12.1361 15.3541 12.5367 15.2848 13.1074 15.2439C13.5594 15.2116 13.9735 15.3286 14.2617 15.3617C14.327 15.3693 14.3846 15.3733 14.4358 15.3733C14.7012 15.3733 14.7938 15.2617 14.8752 14.9283C14.9078 14.7947 14.9437 14.6615 14.9674 14.5262C14.9929 14.3808 15.0866 14.3077 15.2399 14.2695C15.764 14.1391 16.2861 13.9949 16.7962 13.8192C16.9549 13.7645 17.105 13.6142 17.2028 13.4696C17.3727 13.2183 17.2488 12.9701 16.9532 12.9017Z"
            stroke="var(--hover-color, currentColor)" stroke-width="1.1" stroke-linejoin="round"
            style="transition: all 0.3s ease;" />
    </symbol>
    <symbol id="youtube" fill="none" viewBox="0 0 18 18">
        <path
            d="M7.65726 11.6221C7.45726 11.7378 7.20703 11.5935 7.20703 11.3624V6.70755C7.20703 6.47649 7.45727 6.33217 7.65727 6.44788L11.6801 8.77537C11.8798 8.89091 11.8798 9.17919 11.6801 9.29472L7.65726 11.6221Z"
            fill="var(--hover-color, currentColor)" style="transition: all 0.3s ease;" />
        <path
            d="M2.43304 14.5925L2.43223 14.5922C1.67101 14.3876 1.06863 13.786 0.863217 13.0249C0.702012 12.4192 0.619991 11.4947 0.581553 10.6605C0.543714 9.8394 0.549923 9.1565 0.551093 9.05923L0.551244 9.05923L0.551097 9.04633C0.549987 8.94915 0.543748 8.26104 0.581429 7.4332C0.619685 6.59276 0.70138 5.66012 0.862305 5.04831C1.06559 4.29629 1.68712 3.66965 2.42973 3.46482C2.71269 3.39096 3.25215 3.32436 3.94561 3.26994C4.62683 3.21648 5.41486 3.17757 6.16576 3.1495C6.91583 3.12145 7.62468 3.10437 8.14627 3.09431C8.40697 3.08928 8.62063 3.08601 8.76898 3.08399L8.94018 3.08185L8.98471 3.08137L8.99463 3.08127L9.00455 3.08137L9.0491 3.08184L9.22044 3.08396C9.36893 3.08597 9.5828 3.08925 9.84376 3.09433C10.3659 3.1045 11.0754 3.12186 11.8263 3.15066C12.578 3.17949 13.3667 3.21961 14.0484 3.27498C14.7452 3.33157 15.2851 3.40096 15.566 3.47776L15.5683 3.47837C16.3272 3.68236 16.9295 4.28333 17.1353 5.04411L17.1357 5.04574C17.3026 5.6549 17.3852 6.58728 17.4223 7.43167C17.4588 8.26215 17.4494 8.95476 17.4477 9.0587L17.4476 9.07463C17.4489 9.17691 17.4546 9.85769 17.4165 10.6763C17.3779 11.507 17.296 12.429 17.1355 13.0391C16.9299 13.7994 16.3285 14.4004 15.5671 14.6057C15.2821 14.6803 14.7731 14.7465 14.1244 14.8004C13.4868 14.8534 12.7508 14.8918 12.0347 14.9195C10.6069 14.9748 9.2768 14.9869 9.00244 14.9888H8.99461C8.99459 14.9888 8.99457 14.9888 8.99456 14.9888C7.68423 14.9887 6.35934 14.9768 5.19529 14.9196C4.01963 14.8619 3.05112 14.7596 2.43304 14.5925Z"
            stroke="var(--hover-color, currentColor)" style="transition: all 0.3s ease;" stroke-width="1.1"
            stroke-linejoin="round" />
    </symbol>
    <symbol id="linkedin" viewBox="0 0 18 18" fill="none">
        <path
            d="M5.62527 14.8711H3.16434V6.92578H5.62527V14.8711ZM5.87082 4.39439C5.87082 3.59885 5.22537 2.95312 4.43024 2.95312C3.63208 2.95312 2.98828 3.59885 2.98828 4.39439C2.98828 5.19022 3.63208 5.83594 4.43024 5.83594C5.22537 5.83594 5.87082 5.19022 5.87082 4.39439ZM14.8359 10.4999C14.8359 8.36705 14.3854 6.78516 11.8938 6.78516C10.6966 6.78516 9.89291 7.38391 9.56483 8.00656H9.5625V6.92578H7.17188V14.8711H9.5625V10.9262C9.5625 9.89305 9.82549 8.8922 11.1061 8.8922C12.3692 8.8922 12.4102 10.0736 12.4102 10.9918V14.8711H14.8359V10.4999Z"
            fill="var(--hover-color, currentColor)" style="transition: all 0.3s ease;" />
        <path
            d="M17.45 2.10938V15.8906C17.45 16.75 16.75 17.45 15.8906 17.45H2.10938C1.24995 17.45 0.55 16.75 0.55 15.8906V2.10938C0.55 1.24995 1.24995 0.55 2.10938 0.55H15.8906C16.75 0.55 17.45 1.24995 17.45 2.10938Z"
            stroke="var(--hover-color, currentColor)" style="transition: all 0.3s ease;" stroke-width="1.1"
            stroke-linejoin="round" />
    </symbol>

    <symbol id="instagram" viewBox="0 0 18 18" fill="none">
        <path
            d="M8.96851 12.3562C7.11844 12.3562 5.61226 10.8502 5.61226 9C5.61226 7.14984 7.11844 5.64375 8.96851 5.64375C10.8187 5.64375 12.3248 7.14983 12.3248 9C12.3248 10.8502 10.8187 12.3562 8.96851 12.3562Z"
            stroke="var(--hover-color, currentColor)" style="transition: all 0.3s ease;" stroke-width="1.1"
            stroke-linejoin="round" />
        <path
            d="M12.925 4.78125C12.925 4.56723 13.0985 4.39375 13.3125 4.39375C13.5266 4.39375 13.7 4.56718 13.7 4.78125C13.7 4.99532 13.5266 5.16875 13.3125 5.16875C13.0985 5.16875 12.925 4.99527 12.925 4.78125Z"
            stroke="var(--hover-color, currentColor)" style="transition: all 0.3s ease;" stroke-width="1.1"
            stroke-linejoin="round" />
        <path fill-rule="evenodd" clip-rule="evenodd"
            d="M9.15747 17C9.10449 17 9.05151 17 8.99817 16.9997C7.74402 17.0028 6.5852 16.9709 5.45825 16.9023C4.42505 16.8394 3.48193 16.4824 2.73071 15.8698C2.00586 15.2788 1.51086 14.4796 1.25952 13.4947C1.04077 12.6373 1.02917 11.7956 1.01807 10.9815C1.01001 10.3974 1.00171 9.70528 1 9.00142C1.00171 8.29463 1.01001 7.60249 1.01807 7.01839C1.02917 6.20442 1.04077 5.36275 1.25952 4.5052C1.51086 3.52034 2.00586 2.72115 2.73071 2.13008C3.48193 1.51753 4.42505 1.16048 5.45837 1.09761C6.58533 1.02913 7.74438 0.997147 9.00122 1.0002C10.2557 0.997514 11.4142 1.02913 12.5411 1.09761C13.5743 1.16048 14.5175 1.51753 15.2687 2.13008C15.9936 2.72115 16.4885 3.52034 16.7399 4.5052C16.9586 5.36263 16.9702 6.20442 16.9813 7.01839C16.9894 7.60249 16.9978 8.29463 16.9994 8.99849V9.00142C16.9978 9.70528 16.9894 10.3974 16.9813 10.9815C16.9702 11.7955 16.9587 12.6372 16.7399 13.4947C16.4885 14.4796 15.9936 15.2788 15.2687 15.8698C14.5175 16.4824 13.5743 16.8394 12.5411 16.9023C11.4619 16.968 10.3533 17 9.15747 17Z"
            stroke="var(--hover-color, currentColor)" style="transition: all 0.3s ease;" stroke-width="1.1"
            stroke-linejoin="round" />
    </symbol>
    <symbol id="link-arrow" viewBox="0 0 16 16" fill="none">
        <path d="M5 3L11 8L5 13" stroke="var(--color, currentColor)" stroke-width="1.7" stroke-linecap="round"
            stroke-linejoin="round" />
    </symbol>
    <symbol id="copy" viewBox="0 0 20 20" fill="none">
        <path
            d="M13.8 16C14.9201 16 15.4802 16 15.908 15.782C16.2843 15.5903 16.5903 15.2843 16.782 14.908C17 14.4802 17 13.9201 17 12.8V5.2C17 4.0799 17 3.51984 16.782 3.09202C16.5903 2.71569 16.2843 2.40973 15.908 2.21799C15.4802 2 14.9201 2 13.8 2H10.2C9.07989 2 8.51984 2 8.09202 2.21799C7.71569 2.40973 7.40973 2.71569 7.21799 3.09202C7 3.51984 7 4.07989 7 5.2"
            stroke="currentColor" style="transition: all 0.3s ease;" />
        <rect x="4" y="5" width="10" height="14" rx="2" fill="var(--front-rect-fill, transparent)" stroke="currentColor"
            style="transition: all 0.3s ease;" />
        <path d="M5.5 12.5L7.5 14.5L12 10" stroke="var(--tip-stroke, transparent)" style="transition: all 0.3s ease;"
            stroke-linecap="round" stroke-linejoin="round" />
    </symbol>
    <svg id="submenu-arrow" viewBox="0 0 17 16">
        <path d="M13.5 11L8.5 5L3.5 11" stroke="var(--color, currentColor)" stroke-width="1.7" stroke-linecap="round"
            stroke-linejoin="round" />
    </svg>
    <svg id="close" viewBox="0 0 34 34" fill="none">
        <rect x="0.75" y="0.75" width="32.5" height="32.5" rx="16.25" fill="var(--fill-color)" fill-opacity=""
            style="transition: all 0.2s ease;" />
        <rect x="0.75" y="0.75" width="32.5" height="32.5" rx="16.25" stroke="var(--stroke-color)" stroke-width="1.5"
            style="transition: all 0.2s ease;" />
        <rect x="21.9492" y="10.6362" width="2" height="16" rx="1" transform="rotate(45 21.9492 10.6362)"
            fill="currentColor" style="transition: all 0.1s ease;" />
        <rect x="23.252" y="22.0615" width="2" height="16" rx="1" transform="rotate(135 23.252 22.0615)"
            fill="currentColor" style="transition: all 0.1s ease;" />
    </svg>
    <svg id="info" viewBox="0 0 16 16" fill="none">
        <path
            d="M7.99967 14.6667C11.6816 14.6667 14.6663 11.6819 14.6663 8.00004C14.6663 4.31814 11.6816 1.33337 7.99967 1.33337C4.31778 1.33337 1.33301 4.31814 1.33301 8.00004C1.33301 11.6819 4.31778 14.6667 7.99967 14.6667Z"
            stroke="currentColor" stroke-width="1.4" stroke-linecap="round" stroke-linejoin="round" />
        <path d="M8 10.6667V8" stroke="currentColor" stroke-width="1.4" stroke-linecap="round"
            stroke-linejoin="round" />
        <path d="M8 5.33337H8.00667" stroke="currentColor" stroke-width="1.4" stroke-linecap="round"
            stroke-linejoin="round" />
    </svg>
    <svg id="required" viewBox="0 0 16 16" fill="none">
        <path
            d="M8.17075 13.1069C7.68649 13.1069 7.37406 12.8101 7.38969 12.3103L7.48341 9.26411L4.71846 11.0293C4.57786 11.123 4.42165 11.1699 4.2342 11.1699C3.87491 11.1699 3.5 10.8731 3.5 10.4045C3.5 10.092 3.65621 9.88896 3.95302 9.71713L6.79608 8.12376L3.95302 6.51478C3.64059 6.35856 3.5 6.13987 3.5 5.84306C3.5 5.35881 3.87491 5.062 4.24982 5.062C4.43727 5.062 4.59349 5.10887 4.71846 5.20259L7.48341 6.93655L7.38969 3.8123C7.37406 3.32805 7.68649 3 8.17075 3C8.655 3 8.92057 3.2968 8.92057 3.8123L8.82684 6.93655L11.5918 5.18697C11.7324 5.09324 11.8886 5.04638 12.0761 5.04638C12.451 5.04638 12.8103 5.34318 12.8103 5.82744C12.8103 6.12425 12.6697 6.32732 12.3572 6.49915L9.49855 8.10814L12.3572 9.73275C12.654 9.90458 12.8103 10.1077 12.8103 10.4201C12.8103 10.8887 12.451 11.1855 12.0761 11.1855C11.8886 11.1855 11.7324 11.1387 11.5918 11.0449L8.82684 9.26411L8.92057 12.3103C8.92057 12.8258 8.655 13.1069 8.17075 13.1069Z"
            fill="currentColor" />
    </svg>
    <svg id="success" viewBox="0 0 16 16" fill="none">
        <path
            d="M14.6668 7.38662V7.99995C14.666 9.43757 14.2005 10.8364 13.3397 11.9878C12.4789 13.1393 11.269 13.9816 9.8904 14.3892C8.51178 14.7968 7.03834 14.7479 5.68981 14.2497C4.34128 13.7515 3.18993 12.8307 2.40747 11.6247C1.62501 10.4186 1.25336 8.99199 1.34795 7.55749C1.44254 6.12299 1.9983 4.7575 2.93235 3.66467C3.8664 2.57183 5.12869 1.81021 6.53096 1.49338C7.93322 1.17656 9.40034 1.32151 10.7135 1.90662"
            stroke="currentColor" stroke-width="1.4" stroke-linecap="round" stroke-linejoin="round" />
        <path d="M14.6667 2.66663L8 9.33996L6 7.33996" stroke="currentColor" stroke-width="1.4" stroke-linecap="round"
            stroke-linejoin="round" />
    </svg>
    <svg id="checkbox" viewBox="0 0 18 18" fill="none">
        <rect x="0.5" y="0.5" width="17" height="17" rx="3.5" fill="var(--background-color, #FBFBFD)"
            stroke="var(--border-color, #D9D9E3)" stroke-width="1.3" style="transition: all 0.3s ease;" />
        <rect x="0.5" y="0.5" width="17" height="17" rx="3.5" />
        <path d="M14.3346 5L7.0013 12.3333L3.66797 9" stroke="var(--tip-color, #D9D9E3)" stroke-width="1.3"
            stroke-linecap="round" stroke-linejoin="round" />
    </svg>

</svg>